<svg xmlns="http://www.w3.org/2000/svg" xmlns:xlink="http://www.w3.org/1999/xlink" width="500" zoomAndPan="magnify" viewBox="0 0 375 172.499995" height="230" preserveAspectRatio="xMidYMid meet" version="1.0"><defs><g/><clipPath id="f38dea7ff2"><path d="M 0.542969 0 L 374.457031 0 L 374.457031 172 L 0.542969 172 Z M 0.542969 0 " clip-rule="nonzero"/></clipPath><clipPath id="a2fa095b42"><path d="M 147 53.414062 L 360 53.414062 L 360 122.078125 L 147 122.078125 Z M 147 53.414062 " clip-rule="nonzero"/></clipPath><clipPath id="4b65d407dc"><path d="M 194.210938 53.414062 L 353.992188 53.414062 C 356.136719 53.414062 358.117188 54.5625 359.179688 56.425781 C 360.238281 58.289062 360.222656 60.578125 359.128906 62.421875 L 329.136719 113.066406 C 325.832031 118.652344 319.824219 122.078125 313.332031 122.078125 L 153.546875 122.078125 C 151.40625 122.078125 149.425781 120.925781 148.363281 119.0625 C 147.300781 117.203125 147.320312 114.914062 148.414062 113.066406 L 178.40625 62.421875 C 181.710938 56.839844 187.71875 53.414062 194.210938 53.414062 Z M 194.210938 53.414062 " clip-rule="nonzero"/></clipPath></defs><g clip-path="url(#f38dea7ff2)"><path fill="#ffffff" d="M 0.542969 0 L 374.457031 0 L 374.457031 172 L 0.542969 172 Z M 0.542969 0 " fill-opacity="1" fill-rule="nonzero"/><path fill="#ffffff" d="M 0.542969 0 L 374.457031 0 L 374.457031 172 L 0.542969 172 Z M 0.542969 0 " fill-opacity="1" fill-rule="nonzero"/></g><g clip-path="url(#a2fa095b42)"><g clip-path="url(#4b65d407dc)"><path fill="#000000" d="M 143.078125 53.414062 L 364.464844 53.414062 L 364.464844 122.078125 L 143.078125 122.078125 Z M 143.078125 53.414062 " fill-opacity="1" fill-rule="nonzero"/></g></g><g fill="#000000" fill-opacity="1"><g transform="translate(10.536489, 110.520177)"><g><path d="M 34.984375 -32.203125 L 22.78125 -32.203125 L 22.78125 0 L 12.484375 0 L 12.484375 -32.203125 L 0.40625 -32.203125 L 0.40625 -40.53125 L 34.984375 -40.53125 Z M 34.984375 -32.203125 "/></g></g></g><g fill="#000000" fill-opacity="1"><g transform="translate(42.57032, 110.520177)"><g><path d="M 23.25 -40.828125 C 29.53125 -40.828125 34.75 -38.867188 38.90625 -34.953125 C 43.070312 -31.046875 45.15625 -26.160156 45.15625 -20.296875 C 45.15625 -14.398438 43.0625 -9.460938 38.875 -5.484375 C 34.695312 -1.515625 29.484375 0.46875 23.234375 0.46875 C 16.992188 0.46875 11.789062 -1.503906 7.625 -5.453125 C 3.46875 -9.410156 1.390625 -14.359375 1.390625 -20.296875 C 1.390625 -26.191406 3.46875 -31.085938 7.625 -34.984375 C 11.789062 -38.878906 17 -40.828125 23.25 -40.828125 Z M 23.359375 -32.203125 C 20.203125 -32.203125 17.503906 -31.054688 15.265625 -28.765625 C 13.023438 -26.472656 11.90625 -23.628906 11.90625 -20.234375 C 11.90625 -16.847656 13.03125 -13.988281 15.28125 -11.65625 C 17.539062 -9.320312 20.234375 -8.15625 23.359375 -8.15625 C 26.484375 -8.15625 29.132812 -9.320312 31.3125 -11.65625 C 33.488281 -13.988281 34.578125 -16.847656 34.578125 -20.234375 C 34.578125 -23.628906 33.488281 -26.472656 31.3125 -28.765625 C 29.132812 -31.054688 26.484375 -32.203125 23.359375 -32.203125 Z M 23.359375 -32.203125 "/></g></g></g><g fill="#000000" fill-opacity="1"><g transform="translate(85.821895, 110.520177)"><g><path d="M 4.046875 -40.484375 L 21.453125 -40.484375 C 27.816406 -40.484375 32.992188 -38.613281 36.984375 -34.875 C 40.972656 -31.132812 42.96875 -26.253906 42.96875 -20.234375 C 42.96875 -14.265625 40.941406 -9.398438 36.890625 -5.640625 C 32.847656 -1.878906 27.566406 0 21.046875 0 L 4.046875 0 Z M 14.34375 -32.265625 L 14.34375 -8.21875 L 21.6875 -8.21875 C 24.84375 -8.21875 27.429688 -9.320312 29.453125 -11.53125 C 31.484375 -13.75 32.5 -16.628906 32.5 -20.171875 C 32.5 -23.722656 31.4375 -26.625 29.3125 -28.875 C 27.195312 -31.132812 24.5 -32.265625 21.21875 -32.265625 Z M 14.34375 -32.265625 "/></g></g></g><g fill="#000000" fill-opacity="1"><g transform="translate(126.876164, 110.520177)"><g><path d="M 23.25 -40.828125 C 29.53125 -40.828125 34.75 -38.867188 38.90625 -34.953125 C 43.070312 -31.046875 45.15625 -26.160156 45.15625 -20.296875 C 45.15625 -14.398438 43.0625 -9.460938 38.875 -5.484375 C 34.695312 -1.515625 29.484375 0.46875 23.234375 0.46875 C 16.992188 0.46875 11.789062 -1.503906 7.625 -5.453125 C 3.46875 -9.410156 1.390625 -14.359375 1.390625 -20.296875 C 1.390625 -26.191406 3.46875 -31.085938 7.625 -34.984375 C 11.789062 -38.878906 17 -40.828125 23.25 -40.828125 Z M 23.359375 -32.203125 C 20.203125 -32.203125 17.503906 -31.054688 15.265625 -28.765625 C 13.023438 -26.472656 11.90625 -23.628906 11.90625 -20.234375 C 11.90625 -16.847656 13.03125 -13.988281 15.28125 -11.65625 C 17.539062 -9.320312 20.234375 -8.15625 23.359375 -8.15625 C 26.484375 -8.15625 29.132812 -9.320312 31.3125 -11.65625 C 33.488281 -13.988281 34.578125 -16.847656 34.578125 -20.234375 C 34.578125 -23.628906 33.488281 -26.472656 31.3125 -28.765625 C 29.132812 -31.054688 26.484375 -32.203125 23.359375 -32.203125 Z M 23.359375 -32.203125 "/></g></g></g><g fill="#ffffff" fill-opacity="1"><g transform="translate(176.262585, 110.520177)"><g><path d="M 34.984375 -32.203125 L 22.78125 -32.203125 L 22.78125 0 L 12.484375 0 L 12.484375 -32.203125 L 0.40625 -32.203125 L 0.40625 -40.53125 L 34.984375 -40.53125 Z M 34.984375 -32.203125 "/></g></g></g><g fill="#ffffff" fill-opacity="1"><g transform="translate(208.296415, 110.520177)"><g><path d="M 17.984375 -31.625 C 22.265625 -31.625 25.585938 -30.628906 27.953125 -28.640625 C 30.328125 -26.660156 31.535156 -23.898438 31.578125 -20.359375 L 31.578125 0 L 21.796875 0 L 21.796875 -3.578125 C 19.753906 -0.878906 16.578125 0.46875 12.265625 0.46875 C 8.984375 0.46875 6.378906 -0.4375 4.453125 -2.25 C 2.523438 -4.0625 1.5625 -6.414062 1.5625 -9.3125 C 1.5625 -12.28125 2.59375 -14.582031 4.65625 -16.21875 C 6.71875 -17.851562 9.675781 -18.691406 13.53125 -18.734375 L 21.75 -18.734375 L 21.75 -19.203125 C 21.75 -20.742188 21.234375 -21.945312 20.203125 -22.8125 C 19.179688 -23.675781 17.671875 -24.109375 15.671875 -24.109375 C 12.859375 -24.109375 9.753906 -23.242188 6.359375 -21.515625 L 3.53125 -28.109375 C 8.582031 -30.453125 13.398438 -31.625 17.984375 -31.625 Z M 15.328125 -6.296875 C 16.910156 -6.296875 18.296875 -6.691406 19.484375 -7.484375 C 20.679688 -8.273438 21.4375 -9.304688 21.75 -10.578125 L 21.75 -13.359375 L 15.4375 -13.359375 C 12.425781 -13.359375 10.921875 -12.238281 10.921875 -10 C 10.921875 -8.84375 11.304688 -7.9375 12.078125 -7.28125 C 12.859375 -6.625 13.941406 -6.296875 15.328125 -6.296875 Z M 15.328125 -6.296875 "/></g></g></g><g fill="#ffffff" fill-opacity="1"><g transform="translate(239.694188, 110.520177)"><g><path d="M 15.15625 -31.625 C 19.738281 -31.625 24.015625 -30.453125 27.984375 -28.109375 L 24.578125 -21.625 C 20.722656 -23.707031 17.445312 -24.75 14.75 -24.75 C 12.707031 -24.75 11.6875 -24.035156 11.6875 -22.609375 C 11.6875 -21.835938 12.242188 -21.191406 13.359375 -20.671875 C 14.472656 -20.148438 15.835938 -19.675781 17.453125 -19.25 C 19.078125 -18.832031 20.6875 -18.304688 22.28125 -17.671875 C 23.882812 -17.035156 25.242188 -16.019531 26.359375 -14.625 C 27.484375 -13.238281 28.046875 -11.546875 28.046875 -9.546875 C 28.046875 -6.421875 26.832031 -3.976562 24.40625 -2.21875 C 21.976562 -0.46875 18.816406 0.40625 14.921875 0.40625 C 9.410156 0.40625 4.742188 -1.054688 0.921875 -3.984375 L 4.109375 -10.34375 C 7.765625 -7.769531 11.445312 -6.484375 15.15625 -6.484375 C 17.425781 -6.484375 18.5625 -7.191406 18.5625 -8.609375 C 18.5625 -9.421875 18.007812 -10.097656 16.90625 -10.640625 C 15.8125 -11.179688 14.472656 -11.660156 12.890625 -12.078125 C 11.316406 -12.503906 9.738281 -13.035156 8.15625 -13.671875 C 6.570312 -14.304688 5.226562 -15.296875 4.125 -16.640625 C 3.03125 -17.992188 2.484375 -19.695312 2.484375 -21.75 C 2.484375 -24.863281 3.660156 -27.285156 6.015625 -29.015625 C 8.367188 -30.753906 11.414062 -31.625 15.15625 -31.625 Z M 15.15625 -31.625 "/></g></g></g><g fill="#ffffff" fill-opacity="1"><g transform="translate(266.061326, 110.520177)"><g><path d="M 17.640625 -12.03125 L 14.28125 -8.5 L 14.28125 0 L 4.28125 0 L 4.28125 -42.90625 L 14.28125 -42.90625 L 14.28125 -20.234375 L 24.578125 -31.171875 L 35.90625 -31.171875 L 24.46875 -19.203125 L 36.265625 0 L 24.40625 0 Z M 17.640625 -12.03125 "/></g></g></g><g fill="#ffffff" fill-opacity="1"><g transform="translate(299.193795, 110.520177)"><g/></g></g><g fill="#ffffff" fill-opacity="1"><g transform="translate(309.312554, 110.520177)"><g><path d="M 3.53125 -7.859375 C 4.414062 -8.742188 5.570312 -9.1875 7 -9.1875 C 8.425781 -9.1875 9.59375 -8.742188 10.5 -7.859375 C 11.40625 -6.972656 11.859375 -5.816406 11.859375 -4.390625 C 11.859375 -2.960938 11.40625 -1.796875 10.5 -0.890625 C 9.59375 0.015625 8.425781 0.46875 7 0.46875 C 5.570312 0.46875 4.414062 0.015625 3.53125 -0.890625 C 2.644531 -1.796875 2.203125 -2.960938 2.203125 -4.390625 C 2.203125 -5.816406 2.644531 -6.972656 3.53125 -7.859375 Z M 3.53125 -7.859375 "/></g></g></g></svg>